<svg xmlns="http://www.w3.org/2000/svg" width="512" height="512" viewBox="0 0 512 512" role="img" aria-label="Copper factory">
  <defs>
    <linearGradient id="metal" x1="0" x2="1" y1="0" y2="1">
      <stop offset="0" stop-color="#c8d9dc"/>
      <stop offset="0.28" stop-color="#7f98a0"/>
      <stop offset="0.65" stop-color="#40565f"/>
      <stop offset="1" stop-color="#172630"/>
    </linearGradient>
    <linearGradient id="dark" x1="0" x2="1" y1="0" y2="1">
      <stop offset="0" stop-color="#304653"/>
      <stop offset="1" stop-color="#0d1821"/>
    </linearGradient>
    <linearGradient id="copper" x1="0" x2="1" y1="0" y2="1">
      <stop offset="0" stop-color="#ffd49e"/>
      <stop offset="0.24" stop-color="#f58d45"/>
      <stop offset="0.58" stop-color="#bb5c2e"/>
      <stop offset="1" stop-color="#67331f"/>
    </linearGradient>
    <linearGradient id="green" x1="0" x2="0" y1="0" y2="1">
      <stop offset="0" stop-color="#b7ff62"/>
      <stop offset="1" stop-color="#55b81f"/>
    </linearGradient>
    <filter id="shadow" x="-20%" y="-20%" width="140%" height="140%">
      <feDropShadow dx="0" dy="12" stdDeviation="11" flood-color="#000" flood-opacity="0.42"/>
    </filter>
  </defs>

  <rect width="512" height="512" fill="none"/>
  <g filter="url(#shadow)" stroke="#070c12" stroke-width="10" stroke-linejoin="round" stroke-linecap="round">
    <path d="M79 211h202l57 54v121H132L79 333z" fill="url(#metal)"/>
    <path d="M132 265h206L281 211H79z" fill="url(#dark)"/>
    <path d="M132 265v121L79 333V211z" fill="#5d747c"/>
    <path d="M132 265h206" stroke="#dcecef" stroke-width="8" opacity="0.7"/>
    <path d="M93 251l54 39h181" stroke="#dcecef" stroke-width="7" opacity="0.66"/>

    <rect x="105" y="304" width="92" height="56" rx="6" fill="#123d34"/>
    <text x="151" y="343" text-anchor="middle" font-family="monospace" font-size="37" font-weight="900" fill="#a7ff45" stroke="none">Cu</text>
    <rect x="212" y="313" width="17" height="56" rx="4" fill="#111820"/>
    <rect x="216" y="323" width="8" height="10" fill="#ff553c" stroke="none"/>
    <rect x="216" y="349" width="8" height="10" fill="#88ff3a" stroke="none"/>

    <g transform="translate(157 63)">
      <path d="M20 54h54v119c0 20-12 35-27 35S20 193 20 173z" fill="url(#green)"/>
      <ellipse cx="47" cy="54" rx="27" ry="14" fill="#ecfff0"/>
      <circle cx="47" cy="19" r="31" fill="#f3ffff"/>
      <path d="M13 48h68v27H13z" fill="url(#metal)"/>
      <path d="M10 100h74" stroke="#e8ffff" stroke-width="7" opacity="0.7"/>
      <path d="M18 55c18 11 40 11 58 0" fill="none" stroke="#c7ffff" stroke-width="5" opacity="0.7"/>
    </g>

    <g transform="translate(244 63)">
      <path d="M20 54h54v119c0 20-12 35-27 35S20 193 20 173z" fill="url(#green)"/>
      <ellipse cx="47" cy="54" rx="27" ry="14" fill="#ecfff0"/>
      <circle cx="47" cy="19" r="31" fill="#f3ffff"/>
      <path d="M13 48h68v27H13z" fill="url(#metal)"/>
      <path d="M10 100h74" stroke="#e8ffff" stroke-width="7" opacity="0.7"/>
      <path d="M18 55c18 11 40 11 58 0" fill="none" stroke="#c7ffff" stroke-width="5" opacity="0.7"/>
    </g>

    <g transform="translate(259 291)">
      <path d="M7 37h222v83H7z" fill="url(#metal)"/>
      <path d="M28 5h185c23 0 42 19 42 42s-19 42-42 42H28C5 89-14 70-14 47S5 5 28 5z" fill="url(#copper)"/>
      <path d="M32 30h176c20 0 35 16 35 35" fill="none" stroke="#ffe0bd" stroke-width="9" opacity="0.72"/>
      <path d="M30 89h184c22 0 40 18 40 40s-18 40-40 40H30c-22 0-40-18-40-40s18-40 40-40z" fill="url(#copper)"/>
      <path d="M31 114h176c20 0 35 16 35 35" fill="none" stroke="#ffe0bd" stroke-width="9" opacity="0.72"/>
      <path d="M29 173h184c22 0 40 18 40 40s-18 40-40 40H29c-22 0-40-18-40-40s18-40 40-40z" fill="url(#copper)"/>
      <path d="M31 198h176c20 0 35 16 35 35" fill="none" stroke="#ffe0bd" stroke-width="9" opacity="0.72"/>
    </g>

    <g transform="translate(238 331)">
      <path d="M0 49h42c24 0 44 20 44 44v55H0z" fill="url(#metal)"/>
      <circle cx="44" cy="95" r="9" fill="#151d23"/>
      <path d="M92 70h42c24 0 44 20 44 44v55H92z" fill="url(#metal)"/>
      <circle cx="136" cy="116" r="9" fill="#151d23"/>
    </g>

    <rect x="451" y="374" width="31" height="79" rx="7" fill="url(#metal)"/>
    <rect x="249" y="443" width="224" height="28" rx="6" fill="url(#metal)"/>
  </g>
</svg>
