<svg xmlns="http://www.w3.org/2000/svg" width="512" height="512" viewBox="0 0 512 512" role="img" aria-label="Mud factory">
  <defs>
    <linearGradient id="metal" x1="0" x2="1" y1="0" y2="1">
      <stop offset="0" stop-color="#c7d6d9"/>
      <stop offset="0.35" stop-color="#80959b"/>
      <stop offset="0.7" stop-color="#53686f"/>
      <stop offset="1" stop-color="#26363d"/>
    </linearGradient>
    <linearGradient id="glass" x1="0" x2="0" y1="0" y2="1">
      <stop offset="0" stop-color="#e4fbff" stop-opacity="0.92"/>
      <stop offset="0.45" stop-color="#59cfff" stop-opacity="0.86"/>
      <stop offset="1" stop-color="#1388d9" stop-opacity="0.95"/>
    </linearGradient>
    <linearGradient id="mud" x1="0" x2="0" y1="0" y2="1">
      <stop offset="0" stop-color="#df8b4f"/>
      <stop offset="0.45" stop-color="#9e5632"/>
      <stop offset="1" stop-color="#5b2e20"/>
    </linearGradient>
    <filter id="shadow" x="-20%" y="-20%" width="140%" height="140%">
      <feDropShadow dx="0" dy="12" stdDeviation="10" flood-color="#000" flood-opacity="0.35"/>
    </filter>
  </defs>

  <rect width="512" height="512" fill="none"/>
  <g filter="url(#shadow)" stroke="#0b1720" stroke-width="10" stroke-linejoin="round" stroke-linecap="round">
    <g transform="translate(72 76)">
      <ellipse cx="136" cy="330" rx="88" ry="24" fill="#1d2f38" opacity="0.35" stroke="none"/>
      <path d="M50 130h170v205c0 32-38 58-85 58s-85-26-85-58z" fill="url(#glass)"/>
      <ellipse cx="135" cy="130" rx="85" ry="28" fill="#b9cbd0"/>
      <ellipse cx="135" cy="130" rx="64" ry="16" fill="#86a0a7"/>
      <path d="M54 301c37 20 126 20 164 0v39c-13 28-44 43-83 43s-72-15-81-43z" fill="url(#metal)"/>
      <path d="M50 130c22 24 147 24 170 0" fill="none" stroke="#f4ffff" stroke-opacity="0.65" stroke-width="6"/>
      <circle cx="78" cy="214" r="5" fill="#f6ffff" stroke="none"/>
      <circle cx="116" cy="251" r="6" fill="#f6ffff" stroke="none"/>
      <circle cx="172" cy="226" r="5" fill="#f6ffff" stroke="none"/>
      <circle cx="196" cy="276" r="6" fill="#f6ffff" stroke="none"/>
      <circle cx="88" cy="279" r="4" fill="#2c85d4" stroke="none"/>
      <circle cx="155" cy="193" r="4" fill="#2c85d4" stroke="none"/>
      <path d="M30 101h211v48H30z" fill="url(#metal)"/>
      <path d="M54 56h164l23 45H30z" fill="url(#metal)"/>
    </g>

    <g transform="translate(238 130)">
      <ellipse cx="104" cy="276" rx="76" ry="20" fill="#1d2f38" opacity="0.35" stroke="none"/>
      <path d="M28 78h152v187c0 29-34 52-76 52s-76-23-76-52z" fill="url(#mud)"/>
      <ellipse cx="104" cy="78" rx="76" ry="25" fill="#d78d55"/>
      <path d="M31 229c34 18 112 18 146 0v35c-10 26-38 39-73 39s-64-13-73-39z" fill="url(#metal)"/>
      <path d="M28 78c20 21 132 21 152 0" fill="none" stroke="#ffc177" stroke-opacity="0.75" stroke-width="5"/>
      <circle cx="64" cy="128" r="5" fill="#f3a15d" stroke="none"/>
      <circle cx="112" cy="147" r="6" fill="#6d321d" stroke="none"/>
      <circle cx="147" cy="119" r="5" fill="#f3a15d" stroke="none"/>
      <circle cx="85" cy="190" r="5" fill="#6d321d" stroke="none"/>
      <circle cx="139" cy="207" r="4" fill="#f3a15d" stroke="none"/>
      <path d="M12 48h184v43H12z" fill="url(#metal)"/>
      <path d="M34 8h140l22 40H12z" fill="url(#metal)"/>
    </g>

    <path d="M218 144c32 0 49 20 49 47v89" fill="none" stroke="url(#metal)" stroke-width="28"/>
    <path d="M224 146c27 3 35 22 35 45v86" fill="none" stroke="#cce2e5" stroke-width="6" opacity="0.6"/>
  </g>
</svg>
