<svg xmlns="http://www.w3.org/2000/svg" width="512" height="512" viewBox="0 0 512 512" role="img" aria-label="Steel factory">
  <defs>
    <linearGradient id="orange" x1="0" x2="1" y1="0" y2="1">
      <stop offset="0" stop-color="#f6b176"/>
      <stop offset="0.28" stop-color="#de7a35"/>
      <stop offset="0.65" stop-color="#9e4a21"/>
      <stop offset="1" stop-color="#522614"/>
    </linearGradient>
    <linearGradient id="dark" x1="0" x2="0" y1="0" y2="1">
      <stop offset="0" stop-color="#22313b"/>
      <stop offset="1" stop-color="#0b1118"/>
    </linearGradient>
    <linearGradient id="steel" x1="0" x2="1" y1="0" y2="1">
      <stop offset="0" stop-color="#f3fbff"/>
      <stop offset="0.32" stop-color="#c2d6df"/>
      <stop offset="0.72" stop-color="#8198a4"/>
      <stop offset="1" stop-color="#41525c"/>
    </linearGradient>
    <linearGradient id="belt" x1="0" x2="1" y1="0" y2="1">
      <stop offset="0" stop-color="#d7edf4"/>
      <stop offset="0.5" stop-color="#8da6b1"/>
      <stop offset="1" stop-color="#51646e"/>
    </linearGradient>
    <filter id="shadow" x="-20%" y="-20%" width="140%" height="140%">
      <feDropShadow dx="0" dy="13" stdDeviation="12" flood-color="#000" flood-opacity="0.45"/>
    </filter>
  </defs>

  <rect width="512" height="512" fill="none"/>
  <g filter="url(#shadow)" stroke="#070b10" stroke-width="10" stroke-linejoin="round" stroke-linecap="round">
    <path d="M114 120h251l61 58v78H174l-60-58z" fill="url(#orange)"/>
    <path d="M174 178h252L365 120H114z" fill="#f0a35f"/>
    <path d="M174 178v78l-60-58v-78z" fill="#c46129"/>

    <path d="M114 207h252l60 58v88H174l-60-58z" fill="url(#orange)"/>
    <path d="M174 265h252l-60-58H114z" fill="#d26a2d"/>
    <path d="M174 265v88l-60-58v-88z" fill="#974019"/>

    <rect x="151" y="138" width="94" height="31" rx="5" fill="url(#dark)"/>
    <path d="M158 144h80" stroke="#304550" stroke-width="5" opacity="0.7"/>
    <path d="M158 157h80" stroke="#304550" stroke-width="5" opacity="0.7"/>

    <rect x="329" y="154" width="69" height="31" rx="5" fill="url(#dark)"/>
    <path d="M336 160h55" stroke="#304550" stroke-width="5" opacity="0.7"/>
    <path d="M336 173h55" stroke="#304550" stroke-width="5" opacity="0.7"/>

    <rect x="386" y="223" width="37" height="83" rx="4" fill="url(#dark)"/>
    <path d="M393 230v68" stroke="#304550" stroke-width="6" opacity="0.7"/>
    <path d="M407 230v68" stroke="#304550" stroke-width="6" opacity="0.7"/>

    <path d="M185 274h178v82H185z" fill="url(#dark)"/>
    <path d="M188 286h171" stroke="#243440" stroke-width="15"/>
    <path d="M188 316h171" stroke="#243440" stroke-width="15"/>
    <path d="M197 348c44 19 111 19 153 0" fill="none" stroke="#ffc943" stroke-width="8" stroke-dasharray="9 8"/>

    <g transform="translate(47 280)">
      <path d="M0 55h177v55H0z" fill="url(#belt)"/>
      <path d="M15 42h177v55H15z" fill="url(#steel)"/>
      <path d="M23 51h154" stroke="#f7ffff" stroke-width="7" opacity="0.7"/>
      <path d="M30 68h135" stroke="#95aeb9" stroke-width="7" opacity="0.72"/>
      <path d="M36 85h116" stroke="#95aeb9" stroke-width="7" opacity="0.72"/>
      <rect x="3" y="105" width="17" height="31" rx="4" fill="#394b55"/>
      <rect x="150" y="100" width="17" height="33" rx="4" fill="#394b55"/>
    </g>

    <g transform="translate(253 346)">
      <path d="M0 53h215v59H0z" fill="url(#belt)"/>
      <path d="M17 39h215v59H17z" fill="url(#steel)"/>
      <path d="M26 49h187" stroke="#f7ffff" stroke-width="8" opacity="0.72"/>
      <path d="M48 67h152" stroke="#95aeb9" stroke-width="8" opacity="0.72"/>
      <path d="M73 83h105" stroke="#95aeb9" stroke-width="8" opacity="0.72"/>
      <path d="M86 38c21 4 39 16 52 36" fill="none" stroke="#f7ffff" stroke-width="8" opacity="0.75"/>
      <rect x="18" y="103" width="18" height="36" rx="4" fill="#394b55"/>
      <rect x="118" y="105" width="18" height="38" rx="4" fill="#394b55"/>
      <rect x="207" y="99" width="18" height="38" rx="4" fill="#394b55"/>
    </g>

    <g transform="translate(104 197)">
      <path d="M0 0h51v225H0z" fill="url(#orange)"/>
      <path d="M-19 205h88l-13 35h-62z" fill="url(#orange)"/>
      <path d="M11 13v178" stroke="#ffc08b" stroke-width="6" opacity="0.55"/>
      <path d="M41 0v212" stroke="#713016" stroke-width="6" opacity="0.55"/>
    </g>

    <g transform="translate(276 259)">
      <path d="M0 0h54v202H0z" fill="url(#orange)"/>
      <path d="M-21 183h96l-13 38h-69z" fill="url(#orange)"/>
      <path d="M12 14v156" stroke="#ffc08b" stroke-width="6" opacity="0.55"/>
      <path d="M43 0v188" stroke="#713016" stroke-width="6" opacity="0.55"/>
    </g>

    <path d="M93 154h45v91H93z" fill="url(#orange)"/>
    <path d="M99 89h69l52 52H91z" fill="url(#orange)"/>
    <text x="139" y="170" text-anchor="middle" font-family="monospace" font-size="32" font-weight="900" fill="#8d271d" stroke="none">Lf-18</text>
    <path d="M103 187c23 29 61 29 86 0" fill="none" stroke="#19120e" stroke-width="8"/>

    <path d="M118 253c20 14 55 14 78 0" fill="none" stroke="#ffc943" stroke-width="7" stroke-dasharray="8 7"/>
    <path d="M374 357c22 15 60 15 83 0" fill="none" stroke="#ffc943" stroke-width="7" stroke-dasharray="8 7"/>
  </g>
</svg>
